<?xml version="1.0" encoding="UTF-8"?>
<svg version="1.1" xmlns="http://www.w3.org/2000/svg" width="48" height="48">
<path d="M0 0 C0.66 0 1.32 0 2 0 C2.66 1.65 3.32 3.3 4 5 C4.88260498 4.97905273 5.76520996 4.95810547 6.67456055 4.93652344 C9.96405569 4.86815905 13.25279094 4.81811051 16.54272461 4.78027344 C17.96374457 4.76021579 19.38468259 4.73296222 20.80541992 4.69824219 C22.85355895 4.64945989 24.90060275 4.62697461 26.94921875 4.609375 C28.17987061 4.58842773 29.41052246 4.56748047 30.6784668 4.54589844 C34.63298023 5.08653754 36.19285233 6.22014884 39 9 C42.85577028 14.78365542 40.96148196 22.38981152 40 29 C40.99 29.66 41.98 30.32 43 31 C43 31.66 43 32.32 43 33 C41.02 33.495 41.02 33.495 39 34 C38.67 35.98 38.34 37.96 38 40 C37.34 40 36.68 40 36 40 C35.34 38.35 34.68 36.7 34 35 C33.11739502 35.02094727 32.23479004 35.04189453 31.32543945 35.06347656 C28.03594431 35.13184095 24.74720906 35.18188949 21.45727539 35.21972656 C20.03625543 35.23978421 18.61531741 35.26703778 17.19458008 35.30175781 C15.14644105 35.35054011 13.09939725 35.37302539 11.05078125 35.390625 C9.82012939 35.41157227 8.58947754 35.43251953 7.3215332 35.45410156 C3.38957495 34.91654608 1.77815099 33.77783063 -1 31 C-3.41909755 25.09005282 -3.24418185 18.29446558 -3 12 C-3 11.34 -3 10.68 -3 10 C-3.66 9.67 -4.32 9.34 -5 9 C-5 8.34 -5 7.68 -5 7 C-3.68 6.67 -2.36 6.34 -1 6 C-0.67 4.02 -0.34 2.04 0 0 Z " fill="#AFBCC5" transform="translate(5,4)"/>
<path d="M0 0 C1.65032227 -0.00580078 1.65032227 -0.00580078 3.33398438 -0.01171875 C4.48318359 -0.00011719 5.63238281 0.01148438 6.81640625 0.0234375 C7.96173828 0.01183594 9.10707031 0.00023437 10.28710938 -0.01171875 C11.38861328 -0.00785156 12.49011719 -0.00398437 13.625 0 C14.63232178 0.00338379 15.63964355 0.00676758 16.67749023 0.01025391 C19.78261925 0.45644958 21.1651399 1.19952648 23.37890625 3.3984375 C23.91015625 6.39453125 23.91015625 6.39453125 23.87890625 9.8359375 C23.88921875 10.96902344 23.89953125 12.10210937 23.91015625 13.26953125 C23.26399963 17.07520368 22.37303609 18.03336086 19.37890625 20.3984375 C16.67749023 20.91601562 16.67749023 20.91601562 13.625 20.9296875 C12.52349609 20.93484375 11.42199219 20.94 10.28710938 20.9453125 C9.14177734 20.92984375 7.99644531 20.914375 6.81640625 20.8984375 C5.66720703 20.91390625 4.51800781 20.929375 3.33398438 20.9453125 C1.68366211 20.93757813 1.68366211 20.93757813 0 20.9296875 C-1.00619385 20.92517578 -2.0123877 20.92066406 -3.04907227 20.91601562 C-5.62109375 20.3984375 -5.62109375 20.3984375 -7.44750977 18.56079102 C-9.06766098 15.57562785 -9.01915191 13.21395851 -8.99609375 9.8359375 C-9.00382813 8.70027344 -9.0115625 7.56460937 -9.01953125 6.39453125 C-8.62109375 3.3984375 -8.62109375 3.3984375 -7.44750977 1.73608398 C-4.9118016 -0.12104007 -3.12375881 0.01050507 0 0 Z " fill="#2D322D" transform="translate(16.62109375,13.6015625)"/>
<path d="M0 0 C0.66 0 1.32 0 2 0 C2 0.66 2 1.32 2 2 C2.99 2 3.98 2 5 2 C5.07347656 3.35544922 5.07347656 3.35544922 5.1484375 4.73828125 C5.22320313 5.91777344 5.29796875 7.09726562 5.375 8.3125 C5.47941406 10.07013672 5.47941406 10.07013672 5.5859375 11.86328125 C5.78613747 15.15699887 5.78613747 15.15699887 8 18 C10.61196291 18.51012565 10.61196291 18.51012565 13.6640625 18.51171875 C14.78554688 18.54716797 15.90703125 18.58261719 17.0625 18.61914062 C18.238125 18.64169922 19.41375 18.66425781 20.625 18.6875 C21.80835937 18.72166016 22.99171875 18.75582031 24.2109375 18.79101562 C27.1405306 18.87370575 30.0698164 18.94278714 33 19 C33.495 20.485 33.495 20.485 34 22 C34.66 22 35.32 22 36 22 C36 22.66 36 23.32 36 24 C31.81915709 24.09922585 27.63894629 24.17163374 23.45727539 24.21972656 C22.03625543 24.23978421 20.61531741 24.26703778 19.19458008 24.30175781 C17.14644105 24.35054011 15.09939725 24.37302539 13.05078125 24.390625 C11.20480347 24.4220459 11.20480347 24.4220459 9.3215332 24.45410156 C5.38957495 23.91654608 3.77815099 22.77783063 1 20 C-1.41034556 14.11143427 -1.29832733 7.26487388 -1 1 C-0.67 0.67 -0.34 0.34 0 0 Z " fill="#B0BDC4" transform="translate(3,15)"/>
<path d="M0 0 C1.02104551 0.97850195 2.0206121 1.97980427 3 3 C3.66 3.33 4.32 3.66 5 4 C5 4.66 5 5.32 5 6 C3.68 6.33 2.36 6.66 1 7 C0.67 8.98 0.34 10.96 0 13 C-0.66 13 -1.32 13 -2 13 C-2.28875 12.030625 -2.5775 11.06125 -2.875 10.0625 C-3.64214682 6.89335797 -3.64214682 6.89335797 -6 6 C-6 4 -6 4 -4.125 1.875 C-2 0 -2 0 0 0 Z " fill="#B96DC7" transform="translate(43,31)"/>
<path d="M0 0 C0.66 0 1.32 0 2 0 C3.23225524 2.95741257 4.34053856 5.85945004 5 9 C3.8125 11.5625 3.8125 11.5625 2 13 C0 13 0 13 -1.5 11.5625 C-1.995 11.046875 -2.49 10.53125 -3 10 C-3.66 9.67 -4.32 9.34 -5 9 C-5 8.34 -5 7.68 -5 7 C-3.68 6.67 -2.36 6.34 -1 6 C-0.67 4.02 -0.34 2.04 0 0 Z " fill="#B96BC7" transform="translate(5,4)"/>
</svg>
